<svg xmlns="http://www.w3.org/2000/svg" viewBox="-95 0 375 280"><path fill="#C02000" d="M 68 0 C 61 0 56 4 56 12 L 56 20 L 44 20 C 29 20 20 30 20 44 L 20 56 L 12 56 C 5 56 0 61 0 68 C 0 75 5 80 12 80 L 20 80 L 20 104 L 12 104 C 4.88 104 0 109 0 116 C 0 123 5 128 12 128 L 20 128 L 20 152 L 12 152 C 5 152 0 157 0 164 C 0 171 5 176 12 176 L 20 176 L 20 200 L 12 200 C 5 200 0 204 0 212 C 0 219 5 224 12 224 L 20 224 L 20 236 C 20 250 29 260 44 260 L 56 260 L 56 268 C 56 274 61 280 68 280 C 75 280 80 274 80 268 L 80 260 L 104 260 L 104 268 C 104 274 109 280 116 280 C 123 280 128 274 128 268 L 128 260 L 152 260 L 152 268 C 152 274 157 280 164 280 C 171 280 176 274 176 268 L 176 260 L 200 260 L 200 268 C 200 274 205 280 212 280 C 219 280 224 275.25 224 268 L 224 260 L 236 260 C 250 260 260 250 260 236 L 260 224 L 268 224 C 274 224 280 219.5 280 212.25 C 280 204 274 200 268 200 L 260 200 C 260 197.92 259.94 178.01 260 176 L 268 176 C 274 176 280 171.56 280 164.28 C 280 156 274 152 268 152 L 260 152 C 260 150 259.94 130.02 260 128 L 268 128 C 274 128 280 123 280 116 C 280 109 274 104 268 104 L 260 104 C 260.01 101.92 259.94 82.03 260 80 L 268 80 C 274 80 280 75 280 68 C 280 61 274 56 268 56 L 260 56 L 260 44 C 260 30 250 20 236 20 L 224 20 L 224 12 C 224 4 219 0 212 0 C 205 0 200 4 200 12 L 200 20 L 176 20 L 176 12 C 176 4 171 0 164 0 C 157 0 152 4 152 12 L 152 20 L 128 20 L 128 12 C 128 4 122.88 0 115.94 0 C 108 0 104 4 104 12 L 104 20 L 80 20 L 80 12 C 80 4 75 0 68 0 z M 40 40 L 60 40 L 60 108 L 108 108 L 108 40 L 128 40 L 128 120 C 128 124 124 128 120 128 L 48 128 C 44 128 40 124 40 120 L 40 40 z M 152 40 L 232 40 C 236 40 240 43 240 48 L 240 88 C 240 91 236 96 232 96 L 212 96 L 244 128 L 216 128 L 184 96 L 184 76 L 220 76 L 220 60 L 172 60 L 172 128 L 152 128 L 152 40 z M 48 152 L 120 152 C 124 152 128 155 128 160 L 128 188 L 108 188 L 108 172 L 60 172 L 60 220 L 108 220 L 108 204 L 128 204 L 128 232 C 128 236 124 240 120 240 L 48 240 C 44 240 40 236 40 232 L 40 160 C 40 155 44 152 48 152 z M 152 152 L 172 152 L 172 220 L 240 220 L 240 240 L 152 240 L 152 152 z"/></svg>